<svg xmlns="http://www.w3.org/2000/svg" viewBox="0 0 128 50.2"><path fill="#D81E05" d="M49.8 47.4l-.7 2.4c.7.3 2 .4 2.2.4 2.8 0 6.4-.9 7.3-4.9l.8-4 .7-3.9.2-.8H57l-.1.8c-.6-.6-1.4-.9-2.3-1-.5 0-1.1.1-1.7.3-.3.1-.6.3-.9.5-.4.3-.9.6-1.3 1.1-.4.5-.7 1-1 1.7l-.3.9c-.2.9-.2 1.6-.1 2.2.1.6.4 1.1.7 1.5.7.7 1.6 1.1 2.4 1.1.3 0 .7 0 1-.1.2 0 .4-.1.6-.1.5-.2 1-.4 1.4-.7l.1-.1c-.8 3.1-3.3 3.4-5.7 2.7zm5.2-4.3c-.1.1-.3.2-.5.2-.2.1-.4.1-.7.1-.3 0-.5-.1-.7-.2-.2-.1-.3-.3-.4-.5-.1-.2-.2-.5-.2-.8s0-.6.1-1c.1-.3.1-.5.2-.8.1-.2.2-.5.3-.7s.3-.4.4-.5c.2-.2.5-.3.7-.4h.4c.5 0 .9.2 1.1.6.1.2.2.4.2.7s0 .7-.1 1.1c-.1.3-.1.6-.2.8.1.7-.2 1.1-.6 1.4zM113.1 28.1c-1.1 0-2-.1-3-.3-.5-.1-1.1-.2-1.6-.4-1.4-.4-2.5-1.1-3.5-1.9s-1.7-1.8-2.2-3-.8-2.5-.8-3.9c0-.7.1-1.4.2-2.1.3-1.9 1-3.6 1.9-5s2.1-2.6 3.5-3.6C110.3 6 113.7 5 117 5c1.6 0 3.4.3 5 .9.8.3 1.6.7 2.4 1.2 1.1.7 2 1.7 2.6 2.9s1 2.6 1 4.3c0 .7-.1 1.4-.2 2.2-.4 2.2-1.1 4-2.2 5.5-1 1.5-2.4 2.7-3.8 3.5-2.8 1.9-6.1 2.6-8.7 2.6m-.6-5.6c.5.2 1 .3 1.5.3.7 0 1.3-.2 1.9-.4.6-.3 1.1-.7 1.5-1.2.5-.5.8-1.2 1.1-2 .3-.8.5-1.7.7-2.7.1-.7.2-1.4.2-2s-.1-1.2-.2-1.7-.3-.9-.6-1.3c-.4-.5-.9-.8-1.5-1-.3-.1-.7-.1-1.1-.1-1.3 0-2.5.5-3.4 1.5-.5.5-.9 1.1-1.2 1.9-.3.8-.6 1.7-.8 2.7-.1.8-.2 1.4-.2 2 0 1.6.4 2.6 1 3.2.4.4.7.6 1.1.8zM85.3 5.8h8.3s-.3 1.9-.5 2.6v.1c1-1 2.2-1.7 3.2-2.1s1.9-.7 2.2-.7c.4-.1.8-.2 1.3-.2s1-.1 1.4-.1h1.3l.6.1-1.5 7.4h-.5c-.4-.1-.8-.1-1.3-.1-.6 0-1.3 0-1.9.1s-1.1.2-1.5.3c-.9.3-1.6.6-2.3 1-.6.4-1.1.8-1.5 1.2s-.7 1-1 1.5c-.3.6-.5 1.2-.6 1.9-.6 2.4-1.7 8.6-1.7 8.6h-8.2l4.2-21.6M68.2 25.9c-.8-.6-1.5-1.4-2-2.3s-.8-2-.8-3.2c0-.6.1-1.2.2-1.8l1.7-7.7h-3l1-5.2h3l.7-3.5L77.2 0l-1.1 5.8h5.4l-1 5.2h-5.2l-1.5 6.7c-.1.3-.1.7-.1 1 0 .5.1.9.2 1.3.6 2.1 2.5 2.3 4.4 2.1l-1 5.5s-1.5.3-3.4.3c-2 0-4.1-.7-5.7-2M47.1 27.9c-.3 0-.6-.1-.8-.1-.7-.1-1.4-.3-2.1-.5-3.1-1.1-5.8-4.6-5.8-8.9 0-.5 0-1 .1-1.5.2-1.7.7-3.2 1.3-4.7.6-1.4 1.5-2.7 2.6-3.7s2.5-1.9 4.1-2.4c1.6-.6 3.5-.9 5.7-.9h.5c1.1 0 2.2.2 3.3.6.1 0 .1 0 .2.1 1.1.4 2.2 1 3.1 1.8.9.8 1.7 1.8 2.3 2.9.5 1.2.9 2.5.9 4 0 .9-.1 1.9-.4 2.9l-.1.3h-.5l-15.6-.1v.3c0 1.2.6 2.5 1.6 3.4.6.6 1.4 1 2.3 1.3.6.2 1.4.3 2.1.3h.7c2.1-.2 4.3-.4 6.7-1.4l1.1-.4-1.9 5.4-.2.1c-1.8.9-4.9 1.4-8 1.4-1.1 0-2.2 0-3.2-.2m8.2-14.4c0-.3.1-.5.1-.7 0-1-.3-1.8-.9-2.3-.4-.4-.9-.6-1.5-.7-.3-.1-.6-.1-.9-.1-2.3 0-4.2 1.4-5 3.9h8.2v-.1zM12.5 27.5l3.1-14.1V13c0-.4-.2-.9-.5-1.1-.1-.1-.3-.2-.4-.3-.2-.1-.5-.2-.8-.2-1.2 0-2.3.9-2.5 2L8.2 27.5H0l2.9-13.4c.3-1.2.6-2.4 1.1-3.5s1.1-2.1 2-2.9c.8-.8 1.8-1.6 3.1-2 1.3-.5 2.7-.8 4.5-.8h1.1c.3.1.8.1 1.2.2 2 .4 3.6 1.4 4.8 2.8 1-.9 2.3-1.6 3.7-2.1 1.3-.5 2.8-.9 4.1-.9h.2c1.1 0 2 .1 2.8.3.3.1.6.1.8.2 1 .3 1.8.8 2.4 1.4.6.6 1.1 1.3 1.4 2.1.3.8.4 1.7.4 2.6 0 .8-.1 1.7-.3 2.6l-2.9 13.5H25l2.9-14v-.4c0-.4-.2-.8-.5-1.1-.1-.1-.2-.2-.4-.2-.2-.1-.6-.2-.9-.2-1.2 0-2.3.9-2.6 2l-2.8 14h-8.2M106.3 36.5h-1.1c-.2 0-.4 0-.5.1-.1 0-.5.1-.9.3s-.9.4-1.3.8c.1-.3.2-1 .2-1h-3.3l-1.6 8.7h3.3l.7-3.5c.1-.3.1-.5.3-.8.1-.2.2-.4.4-.6.2-.2.4-.3.6-.5s.5-.3.9-.4c.2-.1.4-.1.6-.1h1.5l.6-2.9-.4-.1zM96.3 37.4c-.4-.3-.8-.6-1.3-.7h-.1c-.4-.1-.9-.2-1.3-.2h-.2c-.9 0-1.6.1-2.3.4-.7.2-1.2.6-1.6 1s-.8.9-1.1 1.5c-.3.6-.4 1.2-.5 1.9v.6c0 1.7 1 3.1 2.3 3.6.3.1.5.2.8.2.1 0 .2 0 .3.1.4.1.8.1 1.3.1 1.2 0 2.5-.2 3.2-.6h.1l.8-2.2-.4-.1c-1 .4-1.8.5-2.7.5h-.3c-.3 0-.6 0-.9-.1-.4-.1-.7-.3-.9-.5-.4-.4-.7-.9-.7-1.4v-.1h6.5v-.2c.1-.4.1-.8.1-1.2 0-.6-.1-1.1-.3-1.6-.1-.3-.4-.7-.8-1zm-1.6 2.1v.3h-3.3c.3-1 1.1-1.6 2-1.6h.4c.2 0 .5.1.6.3.2.3.3.6.3 1zM33.5 37c-.3-.2-.6-.4-1-.5-.1 0-.2-.1-.3-.1-.3-.1-.7-.1-1.1-.1H31c-.5 0-1.1.1-1.7.3-.5.2-1.1.5-1.5.8-.5-.5-1.1-1-1.9-1.1-.2 0-.3-.1-.5-.1H25c-.7 0-1.3.1-1.8.3s-.9.5-1.2.8-.6.7-.8 1.2c-.2.5-.4 1-.5 1.5l-1.2 5.4h3.3l1.3-5.6c.1-.4.5-.8 1-.8.1 0 .2 0 .3.1.1 0 .1.1.2.1.1.1.2.3.2.4v.2l-1.2 5.6H28l1.1-5.6c.1-.5.5-.8 1-.8.1 0 .3 0 .4.1.1 0 .1.1.1.1.1.1.2.3.2.5v.2l-1.2 5.6h3.3l1.1-5.4c.1-.4.1-.7.1-1 0-.4-.1-.7-.2-1 0-.5-.2-.8-.4-1.1zM68.3 36.5h-1.1c-.2 0-.4 0-.5.1-.1 0-.5.1-.9.3s-.9.4-1.3.8c.1-.3.2-1 .2-1h-3.3l-1.6 8.7h3.3l.7-3.5c.1-.3.1-.5.3-.8.1-.2.2-.4.4-.6.2-.2.4-.3.6-.5s.5-.3.9-.4c.2-.1.4-.1.6-.1H68l.6-2.9-.3-.1zM77.2 37.2c-.3-.2-.6-.4-.9-.5-.6-.2-1.3-.4-2-.4-1.3 0-2.7.4-3.8 1.2-.5.4-1 .9-1.4 1.4-.4.6-.6 1.2-.8 2 0 .3-.1.6-.1.8 0 .6.1 1.1.3 1.6.2.5.5.9.9 1.2s.9.6 1.4.8c.2.1.4.1.6.2.4.1.8.1 1.2.1 1 0 2.3-.3 3.5-1 .6-.4 1.1-.8 1.5-1.4.4-.6.7-1.3.9-2.2.1-.3.1-.6.1-.9 0-.7-.2-1.3-.4-1.7-.2-.5-.6-.9-1-1.2zm-2 3.8c-.1.4-.2.8-.3 1.1-.1.3-.3.6-.5.8s-.4.4-.6.5-.5.2-.8.2c-.2 0-.4 0-.6-.1-.1-.1-.3-.1-.4-.2-.3-.3-.4-.7-.4-1.3 0-.2 0-.5.1-.8.1-.4.2-.8.3-1.1.1-.3.3-.6.5-.8.4-.4.8-.6 1.4-.6.2 0 .3 0 .4.1.3.1.5.2.6.4.1.1.2.3.3.5.1.2.1.4.1.7 0 0 0 .3-.1.6zM87.3 36.8c-.6-.2-1.3-.4-2-.4-1.3 0-2.7.4-3.8 1.2-.5.4-1 .9-1.4 1.4-.4.6-.6 1.2-.8 2 0 .3-.1.6-.1.8 0 .6.1 1.1.3 1.6.2.5.5.9.9 1.2s.9.6 1.4.8c.2.1.4.1.6.2.4.1.8.1 1.2.1.7 0 1.6-.2 2.5-.5l.5-2.4-.1.1c-.3.2-.6.4-.9.5s-.7.2-1.1.2c-.3 0-.6 0-.9-.1-.2-.1-.4-.1-.5-.2-.4-.3-.6-.7-.6-1.3 0-.2 0-.5.1-.8.1-.4.2-.8.4-1.1.2-.3.4-.6.7-.8.5-.4 1.2-.6 2-.6.2 0 .4 0 .6.1.4.1.7.2.9.4l.1.1.4-2.1c0-.3-.2-.4-.4-.4zM45.5 36.7h-3.3l-2.9 5-1.2-5H35l2.3 8.6-2.6 4.4h3.2l7.6-13z"/></svg>