<svg viewBox="0 0 1402 480"><path fill="#00D6FF" d="M1076 57.19c-6.24 16.82 18.14 41.57 70.5 60.29 53.66 19.18 87.23 15.14 93.47-1.67 6.23-16.82-16.85-41.11-70.51-60.3-52.37-18.73-87.22-15.15-93.46 1.68M140.3 420.58L50.77 158.57h125.16l41.11 181.7 41.12-181.7h95.46l-88.61 262.01zm558.65-262.01h122.42v262.01H698.95zM847.4 90.91c0-17.9-31.52-32.97-87.24-32.97-57.1 0-87.24 15.07-87.24 32.97s30.15 32.98 87.24 32.98c55.73 0 87.24-15.08 87.24-32.98M476.51 288.3c0-54.73 15.35-85.69 33.57-85.69 18.23 0 33.58 30.96 33.58 85.69 0 56.08-15.35 85.69-33.58 85.69-18.22 0-33.57-29.61-33.57-85.69m33.8-139.15c-91.82 0-154.85 49.35-154.85 140.42 0 88.38 63.03 140.42 154.85 140.42 89.99 0 154.39-52.04 154.39-140.42.01-91.07-64.4-140.42-154.39-140.42m671.17 226.11c-18.22 0-33.57-30.95-33.57-85.68 0-56.08 15.35-85.69 33.57-85.69 18.23 0 33.57 29.61 33.57 85.69 0 54.73-15.34 85.68-33.57 85.68m48.29-216.69l-6.39 41.72c-13.7-32.75-37.46-51.14-75.83-51.14-70.34 0-116.93 55.63-116.93 139.98 0 85.24 46.59 140.87 116.93 140.87 38.82 0 63.03-18.39 76.29-52.05l6.85 42.63h112.37V158.57h-113.29zM873.95 76.89h122.42v343.69H873.95z"></path></svg>